<svg xmlns="http://www.w3.org/2000/svg" viewBox="816.55 782.77 1033.5 1101.18">
    <path d="M10671.4 12038.6c89.3-48.7 266.6-79.1 372.5-62.1-154.2.9-353.5 52.6-476.8 276.2 156.6-69.9 419.3 62.3 653.1-88.3 98.3-63.3 133.5-154.8 204-237.2-193 104.3-460.5-119.5-752.8 111.4zm3179.8-246.5c-660.2-67.4-1348.8 70-1972.5 296.7-34.2 285-172.7 445.6-435 562.4-305.1 135.9-630.8 51.7-949.3 187.3-157.3 500.9-1261.33 674.6-1372.28 1291-260.08-377.5-300.21-1070.1-.66-1384.9-1284.21-27.1-2544.7-818.9-2985.4-1898.5 546.39 386.3 1308.13 383.9 1308.13 383.9-921.65-657.4-1436.69-1772.1-1297.21-3039.1 235.84 645.6 558.01 1301.1 1125.06 1689.5-547.01-803.1-599.75-2582 681.07-3283.4-379.5 684.5-371.47 1539.4-170.8 1839.9-121.66-770.7 607.91-2673.5 3149.19-2561.6-627.7 294.4-1062.54 931.9-1062.54 1671.1 0 259.2 53.47 506 149.94 729.7 235-544.8 724.9-953.8 1319.5-1076.8 241.3-40 483.2-41.5 695-10.5 56.2 9.8 111.7 22.1 166.1 36.9-587.9 308.4-988.8 924.8-988.8 1634.6 0 67 3.5 133.3 10.5 198.4 129.8-306.9 433.6-522.3 787.9-522.3 44.8 0 88.8 3.5 131.8 10.2-295.8 125.9-503.3 419-503.3 760.7 0 260.5 145.9 519.5 334.2 671.3-279.6 47.2-599.8-84.7-599.8-84.7 284.7 274.5 627.2 221 1092.4 240.2 184.9 7.6 352.4 21.3 504.7 68.8 370.2 115.4 646.6 510.5 610.4 896.5 240.1 114.4 348.6 438.1 271.7 692.7"
	style="fill: #FCF9DA; fill-opacity: 1; fill-rule: nonzero; stroke: none; --darkreader-inline-stroke: none;" transform="matrix(.13333 0 0 -.13333 0 2666.667)" data-darkreader-inline-stroke=""/>
</svg>
